HIERARCHY
ROOT SpineBase
{
  OFFSET 0.000000 0.000000 0.000000
  CHANNELS 6 Xposition Yposition Zposition Zrotation Xrotation Yrotation
  JOINT SpineMid
  {
    OFFSET 0.000000 26.218118 0.000000
    CHANNELS 3 Zrotation Xrotation Yrotation
    JOINT SpineShoulder
    {
      OFFSET 0.029083 19.577526 -0.590087
      CHANNELS 3 Zrotation Xrotation Yrotation
      JOINT Neck
      {
        OFFSET 0.005935 6.516265 -0.466044
        CHANNELS 3 Zrotation Xrotation Yrotation
        JOINT Head
        {
          OFFSET 2.880657 10.517241 1.231875
          CHANNELS 3 Zrotation Xrotation Yrotation
          End Site
          {
            OFFSET 0 0 0
          }
        }
      }
      JOINT ShoulderLeft
      {
        OFFSET -11.894257 -1.868884 -7.759298
        CHANNELS 3 Zrotation Xrotation Yrotation
        JOINT ElbowLeft
        {
          OFFSET -4.442639 -22.073354 -2.104753
          CHANNELS 3 Zrotation Xrotation Yrotation
          JOINT WristLeft
          {
            OFFSET 1.297577 -22.121263 -5.622679
            CHANNELS 3 Zrotation Xrotation Yrotation
            JOINT HandLeft
            {
              OFFSET 0.629020 -6.241040 -0.419423
              CHANNELS 3 Zrotation Xrotation Yrotation
              JOINT HandTipLeft
              {
                OFFSET -0.079229 -6.092410 -0.170574
                CHANNELS 3 Zrotation Xrotation Yrotation
                End Site
                {
                  OFFSET 0 0 0
                }
              }
              JOINT ThumbLeft
              {
                OFFSET 3.172526 2.199654 0.435361
                CHANNELS 3 Zrotation Xrotation Yrotation
                End Site
                {
                  OFFSET 0 0 0
                }
              }
            }
          }
        }
      }
      JOINT ShoulderRight
      {
        OFFSET 12.126034 -3.698425 4.941706
        CHANNELS 3 Zrotation Xrotation Yrotation
        JOINT ElbowRight
        {
          OFFSET 1.082503 -18.978206 0.673843
          CHANNELS 3 Zrotation Xrotation Yrotation
          JOINT WristRight
          {
            OFFSET 1.525418 -25.713073 -0.442061
            CHANNELS 3 Zrotation Xrotation Yrotation
            JOINT HandRight
            {
              OFFSET -0.324660 -5.536614 -1.334524
              CHANNELS 3 Zrotation Xrotation Yrotation
              JOINT HandTipRight
              {
                OFFSET -0.452602 -6.880670 -0.136451
                CHANNELS 3 Zrotation Xrotation Yrotation
                End Site
                {
                  OFFSET 0 0 0
                }
              }
              JOINT ThumbRight
              {
                OFFSET -2.371480 1.120130 -2.814138
                CHANNELS 3 Zrotation Xrotation Yrotation
                End Site
                {
                  OFFSET 0 0 0
                }
              }
            }
          }
        }
      }
    }
  }
  JOINT HipLeft
  {
    OFFSET -4.421514 1.097833 -5.309377
    CHANNELS 3 Zrotation Xrotation Yrotation
    JOINT KneeLeft
    {
      OFFSET -7.222715 -33.620078 0.406666
      CHANNELS 3 Zrotation Xrotation Yrotation
      JOINT AnkleLeft
      {
        OFFSET -3.050777 -32.151249 5.623065
        CHANNELS 3 Zrotation Xrotation Yrotation
        JOINT FootLeft
        {
          OFFSET 2.806796 -2.994916 -6.051079
          CHANNELS 3 Zrotation Xrotation Yrotation
          End Site
          {
            OFFSET 0 0 0
          }
        }
      }
    }
  }
  JOINT HipRight
  {
    OFFSET 4.070048 0.465418 -0.730338
    CHANNELS 3 Zrotation Xrotation Yrotation
    JOINT KneeRight
    {
      OFFSET -2.136252 -29.406186 1.099206
      CHANNELS 3 Zrotation Xrotation Yrotation
      JOINT AnkleRight
      {
        OFFSET -7.130938 -37.586485 6.296305
        CHANNELS 3 Zrotation Xrotation Yrotation
        JOINT FootRight
        {
          OFFSET 0.610378 -3.495761 -6.757189
          CHANNELS 3 Zrotation Xrotation Yrotation
          End Site
          {
            OFFSET 0 0 0
          }
        }
      }
    }
  }
}
MOTION
Frames: 5
Frame Time: 0.033333
18.621694 73.750949 369.033287 -2.565248 0.683563 -23.312395 0.238538 -0.132781 23.251114 0.084683 -0.121707 -0.094984 10.294592 1.325542 -1.307905 0.000000 0.000000 0.000000 2.728355 26.738879 -5.397500 105.259610 0.337169 3.941253 0.160406 -17.476496 41.307898 65.541500 11.025400 -88.146214 0.000000 0.000000 0.000000 0.000000 0.000000 0.000000 27.819318 10.559382 -0.598878 -122.188860 52.598737 54.978735 -53.158023 13.492615 -20.397539 -17.060555 48.437075 115.213895 0.000000 0.000000 0.000000 0.000000 0.000000 0.000000 6.871051 1.834228 23.366679 -3.866822 1.092123 -0.088389 -38.541375 -48.984781 -52.725370 0.000000 0.000000 0.000000 7.551957 -0.606458 23.691396 -2.091828 3.625085 -0.178067 -1.856976 3.287857 0.180540 0.000000 0.000000 0.000000
18.630851 73.730560 369.017433 -2.585040 0.666655 -23.019540 0.243148 -0.137470 22.957394 0.098507 -0.129218 -0.094790 9.971428 1.422339 -1.292859 0.000000 0.000000 0.000000 2.371034 26.718527 -5.268589 105.728794 0.002435 4.256192 0.393907 -19.305944 43.187382 64.698271 8.445026 -81.010364 0.000000 0.000000 0.000000 0.000000 0.000000 0.000000 27.677422 10.728313 -0.627926 -118.187764 51.094580 49.717516 -48.592633 16.954679 -6.724544 -7.315419 44.824753 85.434695 0.000000 0.000000 0.000000 0.000000 0.000000 0.000000 6.829152 1.860319 23.059617 -3.945301 0.978730 -0.091314 -31.387740 -46.130483 -45.635770 0.000000 0.000000 0.000000 7.224591 -0.893514 23.401412 -1.631976 3.845984 -0.199098 -0.624706 0.708419 -2.622253 0.000000 0.000000 0.000000
18.642524 73.703086 369.010792 -2.603076 0.622682 -22.755635 0.244626 -0.153171 22.691618 0.099950 -0.132253 -0.095743 9.580570 1.550534 -1.269054 0.000000 0.000000 0.000000 2.026416 26.755731 -5.142534 104.613164 -1.713473 6.269470 6.600851 -20.662833 46.610343 62.920818 10.861175 -89.315905 0.000000 0.000000 0.000000 0.000000 0.000000 0.000000 27.554090 10.862521 -0.658909 -118.249067 49.811805 48.215715 -44.701212 17.432953 -1.012951 -2.819117 36.250815 34.734404 0.000000 0.000000 0.000000 0.000000 0.000000 0.000000 6.797269 1.902120 22.782967 -4.399597 0.258118 -0.097975 -28.261446 -44.345572 -44.225732 0.000000 0.000000 0.000000 7.187228 -0.811410 23.125330 -1.758736 3.754261 -0.203999 -0.044445 -2.993456 -4.288549 0.000000 0.000000 0.000000
18.648744 73.681498 369.004845 -2.611484 0.557927 -22.556336 0.252443 -0.170412 22.490329 0.105475 -0.146229 -0.096010 8.892571 1.727603 -1.217147 0.000000 0.000000 0.000000 1.577680 26.772851 -4.978400 102.137511 -4.603395 9.372426 15.255586 -22.067482 49.956439 64.470540 12.767987 -105.830301 0.000000 0.000000 0.000000 0.000000 0.000000 0.000000 27.482558 11.092709 -0.721693 -116.630353 49.145315 46.061570 -38.777679 18.662098 5.500139 2.925148 11.394498 -23.553777 0.000000 0.000000 0.000000 0.000000 0.000000 0.000000 6.790406 1.948450 22.576135 -4.405587 0.252576 -0.097063 -26.334961 -43.270055 -43.191672 0.000000 0.000000 0.000000 7.115189 -0.929506 22.930704 -1.781670 3.957657 -0.242663 -0.269266 -7.359693 -4.617457 0.000000 0.000000 0.000000
18.642665 73.657935 368.988500 -2.608148 0.483377 -22.269401 0.278744 -0.190820 22.201899 0.119312 -0.165570 -0.094589 7.955745 2.031466 -1.171921 0.000000 0.000000 0.000000 1.150078 26.826827 -4.837728 98.379681 -8.609877 13.232530 25.596273 -22.188877 50.599230 61.845589 10.518202 -110.008069 0.000000 0.000000 0.000000 0.000000 0.000000 0.000000 27.582164 10.622737 -0.690416 -115.969713 48.880416 45.698930 -35.654879 16.568823 4.507062 14.283625 -32.889377 -39.887888 0.000000 0.000000 0.000000 0.000000 0.000000 0.000000 6.772737 1.988061 22.281818 -4.411487 0.248100 -0.096337 -24.520715 -42.200202 -42.040995 0.000000 0.000000 0.000000 7.225316 -1.376981 22.691900 -1.999624 4.756130 -0.366281 3.818411 -1.542677 -10.251795 0.000000 0.000000 0.000000
